<svg xmlns="http://www.w3.org/2000/svg" xmlns:xlink="http://www.w3.org/1999/xlink" version="1.1" x="0px" y="0px" viewBox="0 0 50 50" enable-background="new 0 0 50 50" xml:space="preserve"><g><path d="M32.802,29.685c-0.306,0-0.55,0.251-0.55,0.553c0,0.299,0.244,0.542,0.55,0.542c0.302,0,0.546-0.243,0.546-0.542   C33.348,29.936,33.104,29.685,32.802,29.685z"/><path d="M36.438,25.486c0.302,0,0.549-0.247,0.549-0.545c0-0.306-0.247-0.549-0.549-0.549s-0.55,0.244-0.55,0.549   C35.889,25.239,36.137,25.486,36.438,25.486z"/><path d="M40.013,25.955c0-0.042-0.047-4.101-1.903-8.113c-1.252-2.704-3.536-5.772-7.642-7.244   c0.021-0.193,0.044-0.387,0.044-0.583c0-3.049-2.469-5.518-5.51-5.518c-3.045,0-5.514,2.469-5.514,5.518   c0,0.236,0.028,0.467,0.059,0.697c-4.002,1.527-6.278,4.551-7.545,7.207c-1.896,3.981-2.011,7.994-2.011,8.036l-0.72,11.827   c-0.105,1.729,0.518,3.459,1.71,4.728c1.191,1.265,2.874,1.988,4.615,1.988h18.807c1.741,0,3.424-0.724,4.619-1.988   c1.191-1.269,1.818-2.998,1.71-4.728L40.013,25.955z M20.669,10.016c0-2.403,1.934-4.341,4.333-4.341   c2.396,0,4.333,1.938,4.333,4.341c0,0.078-0.013,0.151-0.017,0.228c-1.255-0.33-2.654-0.525-4.231-0.525h-0.085   c-1.609,0.024-3.032,0.251-4.309,0.615C20.686,10.227,20.669,10.123,20.669,10.016z M13.155,22.841   c0.909-3.668,3.652-9.858,11.839-9.978c0.022,0,0.046,0,0.069,0c8.036,0,10.802,5.838,11.75,9.603   c0.26,0.135,0.441,0.403,0.441,0.716v1.768c0,0.457-0.368,0.813-0.816,0.813c-0.453,0-0.82-0.355-0.82-0.813v-1.768   c0-0.221,0.093-0.418,0.24-0.565c-1.053-4.116-3.792-8.782-10.787-8.782c-0.022,0-0.046,0-0.069,0   c-7.153,0.097-9.881,5.084-10.91,9.243c-0.055,0.224-0.256,0.36-0.465,0.36c-0.046,0-0.081,0-0.123-0.016   C13.248,23.363,13.094,23.1,13.155,22.841z M26.754,42.599h-2.572c-0.375,0-0.681-0.305-0.681-0.685   c0-0.375,0.306-0.673,0.681-0.673h2.572c0.375,0,0.677,0.298,0.677,0.673C27.431,42.294,27.129,42.599,26.754,42.599z    M37.525,38.75c0,0.44-0.36,0.809-0.805,0.809c-0.445,0-0.801-0.368-0.801-0.809v-8.918c0-1.057-0.867-1.923-1.927-1.923h-0.619   c0.15,0.151,0.243,0.352,0.243,0.576v1.764c0,0.449-0.363,0.809-0.815,0.809c-0.449,0-0.816-0.359-0.816-0.809v-1.764   c0-0.225,0.089-0.425,0.24-0.576H16.653c-1.064,0-1.928,0.866-1.928,1.923v8.918c0,0.44-0.359,0.809-0.804,0.809   c-0.441,0-0.802-0.368-0.802-0.809v-8.918c0-1.938,1.587-3.532,3.533-3.532h17.34c1.941,0,3.532,1.594,3.532,3.532V38.75z"/><path d="M36.689,13.788c1.563-2.268,4.128-4.36,4.917-2.654c0.774,1.687-0.929,5.846-1.931,8.024   c0.299,0.835,0.526,1.656,0.705,2.414c1.768-3.138,4.511-9.664,1.849-12.407c-2.422-2.503-8.182,0.255-9.896,1.164   C34.156,11.238,35.579,12.46,36.689,13.788z"/><path d="M10.39,19.289c-0.995-2.132-2.786-6.434-1.992-8.156c0.804-1.745,3.466,0.476,5.021,2.797   c1.122-1.343,2.561-2.588,4.402-3.521c-1.49-0.804-7.548-3.826-10.051-1.245c-2.686,2.774,0.135,9.393,1.899,12.497   C9.854,20.914,10.091,20.125,10.39,19.289z"/></g></svg>
